<svg width="552" height="553" viewBox="0 0 552 553" fill="none" xmlns="http://www.w3.org/2000/svg">
<mask id="mask0_4_212" style="mask-type:alpha" maskUnits="userSpaceOnUse" x="0" y="0" width="552" height="553">
<circle cx="276" cy="276.848" r="275.5" fill="#D9D9D9" stroke="white"/>
</mask>
<g mask="url(#mask0_4_212)">
<path d="M593 -27.6523C691.707 -27.6523 767.812 12.8491 819.252 78.0137C870.702 143.191 897.501 233.073 897.501 331.848C897.501 401.49 871.642 484.703 829.054 551.035C786.456 617.381 727.206 666.715 660.483 668.848C496.4 674.092 414.448 609.422 373.486 543.521C352.995 510.554 342.747 477.253 337.622 452.192C335.06 439.663 333.78 429.196 333.14 421.863C332.82 418.197 332.659 415.316 332.579 413.352C332.539 412.37 332.52 411.617 332.51 411.11C332.505 410.857 332.502 410.666 332.501 410.538C332.5 410.474 332.5 410.426 332.5 410.395V410.351C332.5 410.349 332.5 410.348 332 410.348H332.5V409.848H205.502C205.603 253.719 253.113 144.393 325.205 74.0811C397.379 3.68967 494.244 -27.6523 593 -27.6523Z" fill="black" stroke="#86C7A4"/>
<circle cx="151" cy="234.848" r="36.5" fill="black" stroke="#86C7A4"/>
<path d="M402.387 209.532V271.362" stroke="#86C7A4" stroke-width="50" stroke-linecap="round"/>
</g>
</svg>
