<svg width="620" height="600" viewBox="0 0 620 600" fill="none" xmlns="http://www.w3.org/2000/svg">
<path d="M583.999 331.7C570.999 445.2 497.502 599.2 315.751 599.2C133.999 599.2 64.5004 436.2 47.9995 331.7C30.6743 221.98 159.324 132.2 315.751 132.2C472.177 132.2 598.559 204.586 583.999 331.7Z" fill="black"/>
<path d="M386.571 74.4187C390.043 78.1087 395.321 79.4858 400.153 77.9625L486.677 50.688C494.772 48.1361 503.137 53.7778 503.804 62.2396L509.679 136.731C510.22 143.598 515.95 148.894 522.838 148.894H601.882C610.688 148.894 617.024 157.351 614.551 165.802L588.7 254.117C588.422 255.067 588.252 256.045 588.193 257.034L582.564 350.7L49 332.2L44.7126 257.798C44.6267 256.308 44.2888 254.843 43.7132 253.466L7.64594 167.185C4.01064 158.488 10.399 148.894 19.8247 148.894H109.262C116.552 148.894 122.462 142.984 122.462 135.694V67.1974C122.462 58.5815 130.582 52.2752 138.93 54.4084L233.304 78.5258C237.96 79.7154 242.894 78.2815 246.186 74.7822L306.936 10.2172C312.148 4.67784 320.951 4.67785 326.163 10.2172L386.571 74.4187Z" fill="black"/>
<circle cx="186.891" cy="304.688" r="48.9098" stroke="#86C7A4" stroke-width="35.9631"/>
<rect x="155.963" y="273.759" width="61.8566" height="61.1373" rx="30.5686" fill="black"/>
<path d="M315.639 234.2V426.962H395.477" stroke="#86C7A4" stroke-width="35.9631"/>
<rect x="435.756" y="234.2" width="35.2439" height="35.2439" rx="17.6219" fill="#86C7A4"/>
<path d="M453.738 293.18L453.738 368.702" stroke="#86C7A4" stroke-width="35.9631"/>
</svg>
