<svg width="582" height="583" viewBox="0 0 582 583" fill="none" xmlns="http://www.w3.org/2000/svg">
<circle cx="291" cy="291.2" r="291" fill="black"/>
<path d="M178.227 208.262C165.086 208.262 138.559 210.279 123.783 216.896C117.311 219.794 110.016 224.52 103.399 232.65C97.7893 239.542 98.7692 257.037 99.7777 276.886C100.346 288.061 106.898 293.801 111.971 299.394C122.857 311.395 142.471 309.112 161.327 311.649C196.25 316.347 208.727 302.022 219.958 293.358C230.429 285.28 230.18 267.428 232.717 252.636C234.516 242.142 231.219 232.741 225.642 225.636C211.59 207.734 196.624 206.245 184.385 202.67C181.395 201.796 178.288 202.15 177.738 203.663C163.87 241.799 294.327 210.31 298.407 210.294C302.426 210.279 296.405 221.464 294.877 258.336C293.517 291.149 294.357 352.692 295.87 384.887C297.383 417.083 300.408 418.092 303.984 419.115C328.081 426.015 361.53 420.17 373.769 413.049C386.009 404.889 394.169 397.769 397.225 389.151C398.264 383.558 398.264 375.49 398.264 367.178" stroke="#86C7A4" stroke-width="13.6862" stroke-linecap="round"/>
<path d="M389.098 244.935C389.098 245.944 389.098 246.952 390.61 247.472C392.123 247.991 395.149 247.991 397.212 246.479C399.274 244.966 400.283 241.94 399.29 240.382C398.296 238.823 395.271 238.823 393.712 240.336C392.154 241.849 392.154 244.874 398.266 247.991" stroke="#86C7A4" stroke-width="13.6862" stroke-linecap="round"/>
</svg>
