<svg width="589" height="583" viewBox="0 0 589 583" fill="none" xmlns="http://www.w3.org/2000/svg">
<circle cx="291" cy="291.2" r="291" fill="black"/>
<mask id="mask0_4_211" style="mask-type:alpha" maskUnits="userSpaceOnUse" x="7" y="0" width="582" height="583">
<circle cx="298" cy="291.2" r="290.5" fill="#D9D9D9" stroke="white"/>
</mask>
<g mask="url(#mask0_4_211)">
<path d="M632.227 -29.876C736.306 -29.8759 816.555 12.8303 870.796 81.543C925.047 150.268 953.304 245.042 953.304 349.189C953.304 422.623 926.038 510.363 881.132 580.304C836.217 650.258 773.741 702.283 703.379 704.532C530.368 710.062 443.953 641.872 400.76 572.381C379.152 537.618 368.347 502.505 362.943 476.08C360.242 462.869 358.891 451.831 358.216 444.1C357.878 440.234 357.709 437.195 357.625 435.124C357.583 434.089 357.562 433.295 357.552 432.761C357.547 432.494 357.544 432.291 357.543 432.156C357.542 432.089 357.541 432.038 357.541 432.005V431.958C357.539 431.956 357.508 431.955 357.041 431.955H357.541V431.455H223.642C223.743 266.821 273.838 151.537 349.858 77.3936C425.961 3.17064 528.098 -29.876 632.227 -29.876Z" fill="#86C7A4" stroke="black"/>
<circle cx="166.206" cy="246.918" r="38.5109" fill="#86C7A4" stroke="black"/>
<path d="M431.256 220.226V285.416" stroke="black" stroke-width="50" stroke-linecap="round"/>
</g>
</svg>
