<svg width="460" height="342" viewBox="0 0 460 342" fill="none" xmlns="http://www.w3.org/2000/svg">
<path d="M125.776 19.0586C106.573 19.0586 67.8087 22.0061 46.2161 31.6748C36.7582 35.9098 26.0973 42.8172 16.4286 54.6965C8.23079 64.7686 9.66279 90.3343 11.1365 119.34C11.9662 135.671 21.5421 144.059 28.9554 152.232C44.8634 169.769 73.5251 166.433 101.08 170.14C152.114 177.005 170.346 156.072 186.758 143.411C202.06 131.607 201.696 105.518 205.403 83.9034C208.033 68.5674 203.215 54.8304 195.064 44.4472C174.53 18.2871 152.661 16.1111 134.775 10.886C130.405 9.60961 125.865 10.1268 125.061 12.3375C104.796 68.0672 295.435 22.0508 301.397 22.0285C307.27 22.0065 298.472 38.3513 296.239 92.2323C294.252 140.183 295.48 230.117 297.691 277.165C299.901 324.213 304.322 325.687 309.547 327.183C344.761 337.265 393.64 328.724 411.526 318.318C429.412 306.394 441.336 295.989 445.802 283.395C447.32 275.222 447.32 263.432 447.32 251.285" stroke="black" stroke-width="20" stroke-linecap="round"/>
<path d="M433.922 72.6492C433.922 74.1229 433.922 75.5967 436.132 76.3559C438.343 77.1151 442.764 77.1151 445.779 74.9044C448.793 72.6938 450.267 68.2726 448.816 65.995C447.364 63.7174 442.943 63.7174 440.665 65.928C438.388 68.1386 438.388 72.5599 447.32 77.1151" stroke="black" stroke-width="20" stroke-linecap="round"/>
</svg>
