<svg width="620" height="600" viewBox="0 0 620 600" fill="none" xmlns="http://www.w3.org/2000/svg">
<path d="M583.999 331.9C570.999 445.4 497.502 599.4 315.751 599.4C133.999 599.4 64.5004 436.4 47.9995 331.9C30.6743 222.18 159.324 132.4 315.751 132.4C472.177 132.4 598.559 204.786 583.999 331.9Z" fill="black"/>
<path d="M386.571 74.6189C390.043 78.3089 395.321 79.686 400.153 78.1627L486.677 50.8882C494.772 48.3363 503.137 53.978 503.804 62.4398L509.679 136.932C510.22 143.798 515.95 149.094 522.838 149.094H601.882C610.688 149.094 617.024 157.551 614.551 166.002L588.7 254.317C588.422 255.267 588.252 256.246 588.193 257.234L582.564 350.9L49 332.4L44.7126 257.998C44.6267 256.508 44.2888 255.043 43.7132 253.666L7.64594 167.385C4.01064 158.688 10.399 149.094 19.8247 149.094H109.262C116.552 149.094 122.462 143.184 122.462 135.894V67.3976C122.462 58.7817 130.582 52.4754 138.93 54.6086L233.304 78.726C237.96 79.9156 242.894 78.4817 246.186 74.9824L306.936 10.4174C312.148 4.87804 320.951 4.87805 326.163 10.4174L386.571 74.6189Z" fill="black"/>
<path d="M303.766 284.2V397.111H381.37" stroke="#86C7A4" stroke-width="34.957"/>
<path d="M438 295.386V357.61" stroke="#86C7A4" stroke-width="34.957"/>
<path d="M243.289 281.054V371.942H179.668V281.054H243.289Z" fill="black" stroke="#86C7A4" stroke-width="28.6647"/>
</svg>
