<svg width="506" height="404" viewBox="0 0 506 404" fill="none" xmlns="http://www.w3.org/2000/svg">
<path d="M115.825 95.2729C106.838 95.2729 89.7487 96.2144 72.8661 102.37C59.3422 107.301 48.3518 118.996 40.2778 128.254C28.0701 142.251 25.0143 163.203 25 193.823C24.9936 207.532 35.4277 214.585 43.0452 223.387C51.5205 233.179 67.7236 241.689 78.4651 243.864C86.7132 245.535 96.2821 244.114 105.561 242.687C122.58 240.071 132.43 225.598 139.334 216.097C150.794 200.328 150.518 188.052 152.672 171.919C157.15 138.373 149.12 132.39 144.376 125.258C141.531 121.463 139.134 117.64 136.531 113.611C134.869 111.464 132.515 109.11 130.09 105.258" stroke="black" stroke-width="50" stroke-linecap="round"/>
<path d="M304.124 99.5527C304.124 101.436 303.182 104.289 290.223 133.033C278.127 159.859 255.138 211.675 242.784 240.469C230.431 269.263 229.489 273.5 227.357 281.567C222.101 301.448 217.122 322.472 214.982 339.319C213.154 353.714 214.725 362.014 216.615 365.095C219.325 369.512 227.521 372.47 238.184 375.794C250.817 379.732 272.598 379.146 298.468 377.969C310.215 376.793 319.159 374.439 328.945 371.343C338.731 368.248 349.087 364.482 362.61 357.749" stroke="black" stroke-width="50" stroke-linecap="round"/>
<path d="M472.376 137.032C472.376 138.827 471.927 141.547 471.247 145.838C471.016 151.475 467.874 170.419 463.114 196.014C461.496 205.901 461.496 209.491 461.496 213.19" stroke="black" stroke-width="50" stroke-linecap="round"/>
<path d="M477.816 52.7132C477.816 51.8156 477.816 49.1093 478.041 45.0361C478.714 41.8606 479.176 37.7807 479.401 33.0275C479.625 30.9672 480.074 29.6208 480.536 25.5137" stroke="black" stroke-width="50" stroke-linecap="round"/>
</svg>
