<svg width="620" height="600" viewBox="0 0 620 600" fill="none" xmlns="http://www.w3.org/2000/svg">
<path d="M583.999 331.9C570.999 445.4 497.502 599.4 315.751 599.4C133.999 599.4 64.5004 436.4 47.9995 331.9C30.6743 222.18 159.324 132.4 315.751 132.4C472.177 132.4 598.559 204.786 583.999 331.9Z" fill="black"/>
<path d="M386.571 74.6189C390.043 78.3089 395.321 79.686 400.153 78.1627L486.677 50.8882C494.772 48.3363 503.137 53.978 503.804 62.4398L509.679 136.932C510.22 143.798 515.95 149.094 522.838 149.094H601.882C610.688 149.094 617.024 157.551 614.551 166.002L588.7 254.317C588.422 255.267 588.252 256.246 588.193 257.234L582.564 350.9L49 332.4L44.7126 257.998C44.6267 256.508 44.2888 255.043 43.7132 253.666L7.64594 167.385C4.01064 158.688 10.399 149.094 19.8247 149.094H109.262C116.552 149.094 122.462 143.184 122.462 135.894V67.3976C122.462 58.7817 130.582 52.4754 138.93 54.6086L233.304 78.726C237.96 79.9156 242.894 78.4817 246.186 74.9824L306.936 10.4174C312.148 4.87804 320.951 4.87805 326.163 10.4174L386.571 74.6189Z" fill="black"/>
<path d="M227.723 252.23C222.308 252.23 212.012 252.798 201.84 256.506C193.691 259.477 187.07 266.524 182.205 272.102C174.85 280.535 173.009 293.159 173 311.607C172.996 319.867 179.283 324.117 183.872 329.42C188.979 335.32 198.741 340.447 205.213 341.758C210.183 342.764 215.948 341.908 221.539 341.049C231.793 339.472 237.727 330.752 241.887 325.028C248.792 315.527 248.625 308.131 249.923 298.41C252.622 278.198 247.783 274.594 244.925 270.297C243.211 268.01 241.767 265.707 240.198 263.279C239.197 261.986 237.779 260.567 236.318 258.247" stroke="#86C7A4" stroke-width="30.1254" stroke-linecap="round"/>
<path d="M341.174 254.809C341.174 255.943 340.607 257.662 332.799 274.98C325.511 291.144 311.66 322.363 304.217 339.712C296.774 357.06 296.207 359.613 294.922 364.473C291.755 376.452 288.755 389.119 287.466 399.269C286.364 407.943 287.311 412.944 288.45 414.8C290.082 417.461 295.021 419.243 301.445 421.246C309.057 423.619 322.18 423.266 337.767 422.557C344.844 421.848 350.233 420.43 356.129 418.565C362.025 416.699 368.265 414.43 376.413 410.374" stroke="#86C7A4" stroke-width="30.1254" stroke-linecap="round"/>
<path d="M442.547 277.39C442.547 278.472 442.277 280.111 441.867 282.696C441.728 286.092 439.835 297.506 436.967 312.927C435.992 318.884 435.992 321.048 435.992 323.276" stroke="#86C7A4" stroke-width="30.1254" stroke-linecap="round"/>
<path d="M445.826 226.588C445.826 226.047 445.826 224.416 445.961 221.962C446.367 220.049 446.646 217.591 446.781 214.727C446.916 213.485 447.186 212.674 447.465 210.2" stroke="#86C7A4" stroke-width="30.1254" stroke-linecap="round"/>
</svg>
