<svg width="582" height="583" viewBox="0 0 582 583" fill="none" xmlns="http://www.w3.org/2000/svg">
<circle cx="291" cy="291.2" r="291" fill="black"/>
<path d="M187.723 227.23C182.308 227.23 172.012 227.798 161.84 231.506C153.691 234.477 147.07 241.524 142.205 247.102C134.85 255.535 133.009 268.159 133 286.607C132.996 294.867 139.283 299.117 143.872 304.42C148.979 310.32 158.741 315.447 165.213 316.758C170.183 317.764 175.948 316.908 181.539 316.049C191.793 314.472 197.727 305.752 201.887 300.028C208.792 290.527 208.625 283.131 209.923 273.41C212.622 253.198 207.783 249.594 204.925 245.297C203.211 243.01 201.767 240.707 200.198 238.279C199.197 236.986 197.779 235.567 196.318 233.247" stroke="#86C7A4" stroke-width="30.1254" stroke-linecap="round"/>
<path d="M301.174 229.809C301.174 230.943 300.607 232.662 292.799 249.98C285.511 266.144 271.66 297.363 264.217 314.712C256.774 332.06 256.207 334.613 254.922 339.473C251.755 351.452 248.755 364.119 247.466 374.269C246.364 382.943 247.311 387.944 248.45 389.8C250.082 392.461 255.021 394.243 261.445 396.246C269.057 398.619 282.18 398.266 297.767 397.557C304.844 396.848 310.233 395.43 316.129 393.565C322.025 391.699 328.265 389.43 336.413 385.374" stroke="#86C7A4" stroke-width="30.1254" stroke-linecap="round"/>
<path d="M402.547 252.39C402.547 253.472 402.277 255.111 401.867 257.696C401.728 261.092 399.835 272.506 396.967 287.927C395.992 293.884 395.992 296.048 395.992 298.276" stroke="#86C7A4" stroke-width="30.1254" stroke-linecap="round"/>
<path d="M405.826 201.588C405.826 201.047 405.826 199.416 405.961 196.962C406.367 195.049 406.646 192.591 406.781 189.727C406.916 188.485 407.186 187.674 407.465 185.2" stroke="#86C7A4" stroke-width="30.1254" stroke-linecap="round"/>
</svg>
