<svg width="745" height="539" viewBox="0 0 745 539" fill="none" xmlns="http://www.w3.org/2000/svg">
<path d="M625.021 456.442L599.621 533.959C598.802 536.473 596.448 538.189 593.794 538.189L265.768 538.289C261.558 538.289 258.605 534.158 259.942 530.188L405.499 100.242C406.337 97.7482 408.691 96.0723 411.305 96.0723H493.152C497.362 96.0723 500.315 100.203 498.958 104.173L385.127 440.36C383.77 444.35 386.743 448.46 390.953 448.46L619.174 448.401C623.345 448.401 626.318 452.491 625.001 456.462L625.021 456.442Z" fill="black"/>
<path d="M712.214 104.053L623.763 382.756C622.945 385.31 620.59 387.046 617.917 387.046H533.875C529.705 387.046 526.732 382.955 528.049 378.984L619.413 100.282C620.231 97.7682 622.586 96.0522 625.239 96.0522H706.388C710.538 96.0522 713.491 100.083 712.234 104.053H712.214Z" fill="black"/>
<path d="M744.719 8.35915L729.834 55.2485C728.996 57.8823 726.561 59.6581 723.808 59.6581H640.125C635.816 59.6581 632.783 55.448 634.12 51.3577L649.483 4.46831C650.341 1.87443 652.756 0.118591 655.489 0.118591H738.673C742.943 0.118591 745.996 4.26881 744.699 8.35915H744.719Z" fill="black"/>
<path d="M246.953 263.178C221.932 335.906 177.138 377.488 115.623 374.994C45.5083 372.16 31.0824 303.363 57.0611 235.742C88.1078 154.973 131.805 118.719 198.248 126.001C259.603 132.726 272.692 188.334 246.953 263.178Z" stroke="black" stroke-width="89.7881" stroke-miterlimit="10" stroke-linecap="round"/>
</svg>
