<svg width="700" height="503" viewBox="0 0 700 503" fill="none" xmlns="http://www.w3.org/2000/svg">
<path d="M620.033 423.06L595.28 498.601C594.483 501.051 592.188 502.723 589.602 502.723L269.938 502.82C265.835 502.82 262.957 498.795 264.26 494.926L406.106 75.9396C406.923 73.5091 409.217 71.8757 411.765 71.8757H491.525C495.628 71.8757 498.506 75.9007 497.184 79.7701L386.254 407.387C384.931 411.276 387.829 415.282 391.931 415.282L614.336 415.223C618.399 415.223 621.297 419.21 620.013 423.079L620.033 423.06Z" fill="black"/>
<path d="M699.695 79.634L613.499 351.232C612.702 353.721 610.407 355.413 607.802 355.413H525.902C521.838 355.413 518.941 351.427 520.224 347.557L609.26 75.959C610.057 73.509 612.352 71.8368 614.938 71.8368H694.018C698.062 71.8368 700.94 75.7645 699.715 79.634H699.695Z" fill="black"/>
<path d="M361.578 0.203944L133.322 9.80944C130.502 9.9261 128.072 11.7928 127.216 14.4761L0.322378 414.757C-1.05817 419.054 2.1696 423.448 6.68068 423.448H227.801C230.699 423.448 233.265 421.601 234.16 418.84L368.209 8.95389C369.667 4.52058 366.245 -0.00994393 361.578 0.203944ZM242.754 100.226L168.516 334.141C167.816 336.377 165.735 337.893 163.402 337.893H121.266C117.611 337.893 115.024 334.316 116.172 330.835L192.841 96.92C193.56 94.7228 195.621 93.2256 197.954 93.2256H237.64C241.276 93.2256 243.862 96.7644 242.754 100.226Z" fill="black"/>
</svg>
